<svg width="60" height="60" viewBox="0 0 60 60" fill="none" xmlns="http://www.w3.org/2000/svg">
<path d="M30.0003 10.8164C21.305 10.8164 15.0238 17.2969 14.0277 24.2578C13.4066 28.8984 14.9066 33.4219 18.0238 36.8437C20.766 39.7734 22.266 43.6875 22.266 47.7188L22.2542 54.0703C22.2542 56.6367 24.3753 58.7109 27.0003 58.7109H33.1175C35.7425 58.7109 37.8636 56.6367 37.8636 54.0703L37.8753 47.7188C37.8753 43.5703 39.2464 39.7734 41.8714 37.0898C44.7425 34.1602 46.2425 30.375 46.2425 26.4609C46.2308 17.7773 38.8597 10.8164 30.0003 10.8164V10.8164ZM35.4847 54.0703C35.4847 55.2891 34.4886 56.2734 33.2347 56.2734H27.1175C25.8636 56.2734 24.8675 55.3008 24.8675 54.0703V51.2578H35.473V54.0703H35.4847ZM40.1253 35.3789C37.0081 38.5547 35.3792 42.9492 35.3792 47.7188V48.8203H24.7738V47.7188C24.7738 43.1953 22.8988 38.6836 19.7816 35.2617C17.0394 32.332 15.9144 28.5469 16.4066 24.6328C17.2855 18.7734 22.7347 13.2656 30.0121 13.2656C37.6292 13.2656 43.7464 19.2539 43.7464 26.4609C43.7464 29.7539 42.4925 32.9297 40.1253 35.3789Z" fill="#2C4ADA"/>
<path d="M31.2422 1.28906H28.7461V7.14844H31.2422V1.28906Z" fill="#2C4ADA"/>
<path d="M45.1289 12.5859L46.875 14.332L51.1523 10.2187L49.3945 8.47266L45.1289 12.5859Z" fill="#2C4ADA"/>
<path d="M58.7109 27.6797H52.5938V30.1289H58.7109V27.6797Z" fill="#2C4ADA"/>
<path d="M7.40625 27.6797H1.28906V30.1289H7.40625V27.6797Z" fill="#2C4ADA"/>
<path d="M10.5586 8.46094L8.80078 10.207L13.0781 14.3203L14.8242 12.5742L10.5586 8.46094Z" fill="#2C4ADA"/>
</svg>
