<svg width="46" height="46" viewBox="0 0 46 46" fill="none" xmlns="http://www.w3.org/2000/svg">
<path d="M22.9997 28.728C26.1628 28.728 28.727 26.1638 28.727 23.0007C28.727 19.8376 26.1628 17.2734 22.9997 17.2734C19.8366 17.2734 17.2725 19.8376 17.2725 23.0007C17.2725 26.1638 19.8366 28.728 22.9997 28.728Z" stroke="#2C4ADA" stroke-width="3" stroke-linecap="round" stroke-linejoin="round"/>
<path d="M37.1273 28.7273C36.8731 29.3031 36.7973 29.9418 36.9096 30.5611C37.0219 31.1804 37.3172 31.7519 37.7573 32.2018L37.8718 32.3164C38.2268 32.671 38.5084 33.0921 38.7006 33.5556C38.8927 34.0191 38.9916 34.516 38.9916 35.0177C38.9916 35.5195 38.8927 36.0163 38.7006 36.4799C38.5084 36.9434 38.2268 37.3645 37.8718 37.7191C37.5172 38.0741 37.0961 38.3557 36.6326 38.5479C36.1691 38.74 35.6722 38.8389 35.1705 38.8389C34.6687 38.8389 34.1718 38.74 33.7083 38.5479C33.2448 38.3557 32.8237 38.0741 32.4691 37.7191L32.3545 37.6045C31.9046 37.1644 31.3331 36.8692 30.7139 36.7569C30.0946 36.6446 29.4558 36.7204 28.88 36.9745C28.3153 37.2165 27.8338 37.6184 27.4946 38.1306C27.1554 38.6428 26.9734 39.243 26.9709 39.8573V40.1818C26.9709 41.1945 26.5686 42.1656 25.8526 42.8817C25.1365 43.5977 24.1654 44 23.1527 44C22.1401 44 21.1689 43.5977 20.4529 42.8817C19.7368 42.1656 19.3345 41.1945 19.3345 40.1818V40.01C19.3198 39.3781 19.1152 38.7653 18.7475 38.2512C18.3798 37.737 17.8659 37.3455 17.2727 37.1273C16.6969 36.8731 16.0582 36.7973 15.4389 36.9096C14.8196 37.0219 14.2481 37.3172 13.7982 37.7573L13.6836 37.8718C13.329 38.2268 12.9079 38.5084 12.4444 38.7006C11.9809 38.8927 11.484 38.9916 10.9823 38.9916C10.4805 38.9916 9.98366 38.8927 9.52014 38.7006C9.05662 38.5084 8.63552 38.2268 8.28091 37.8718C7.92591 37.5172 7.64428 37.0961 7.45214 36.6326C7.25999 36.1691 7.16109 35.6722 7.16109 35.1705C7.16109 34.6687 7.25999 34.1718 7.45214 33.7083C7.64428 33.2448 7.92591 32.8237 8.28091 32.4691L8.39545 32.3545C8.83557 31.9046 9.13081 31.3331 9.2431 30.7139C9.35539 30.0946 9.27958 29.4558 9.02545 28.88C8.78345 28.3153 8.38162 27.8338 7.86943 27.4946C7.35724 27.1554 6.75705 26.9734 6.14273 26.9709H5.81818C4.80554 26.9709 3.83437 26.5686 3.11832 25.8526C2.40227 25.1365 2 24.1654 2 23.1527C2 22.1401 2.40227 21.1689 3.11832 20.4529C3.83437 19.7368 4.80554 19.3345 5.81818 19.3345H5.99C6.6219 19.3198 7.23474 19.1152 7.74884 18.7475C8.26295 18.3798 8.65455 17.8659 8.87273 17.2727C9.12686 16.6969 9.20266 16.0582 9.09037 15.4389C8.97808 14.8196 8.68284 14.2481 8.24273 13.7982L8.12818 13.6836C7.77318 13.329 7.49156 12.9079 7.29941 12.4444C7.10726 11.9809 7.00836 11.484 7.00836 10.9823C7.00836 10.4805 7.10726 9.98366 7.29941 9.52014C7.49156 9.05662 7.77318 8.63552 8.12818 8.28091C8.48279 7.92591 8.90389 7.64428 9.36741 7.45214C9.83093 7.25999 10.3278 7.16109 10.8295 7.16109C11.3313 7.16109 11.8282 7.25999 12.2917 7.45214C12.7552 7.64428 13.1763 7.92591 13.5309 8.28091L13.6455 8.39545C14.0954 8.83557 14.6668 9.13081 15.2861 9.2431C15.9054 9.35539 16.5442 9.27958 17.12 9.02545H17.2727C17.8374 8.78345 18.3189 8.38162 18.6581 7.86943C18.9973 7.35724 19.1794 6.75705 19.1818 6.14273V5.81818C19.1818 4.80554 19.5841 3.83437 20.3001 3.11832C21.0162 2.40227 21.9874 2 23 2C24.0126 2 24.9838 2.40227 25.6999 3.11832C26.4159 3.83437 26.8182 4.80554 26.8182 5.81818V5.99C26.8206 6.60432 27.0027 7.20452 27.3419 7.71671C27.6811 8.2289 28.1626 8.63073 28.7273 8.87273C29.3031 9.12686 29.9418 9.20266 30.5611 9.09037C31.1804 8.97808 31.7519 8.68284 32.2018 8.24273L32.3164 8.12818C32.671 7.77318 33.0921 7.49156 33.5556 7.29941C34.0191 7.10726 34.516 7.00836 35.0177 7.00836C35.5195 7.00836 36.0163 7.10726 36.4799 7.29941C36.9434 7.49156 37.3645 7.77318 37.7191 8.12818C38.0741 8.48279 38.3557 8.90389 38.5479 9.36741C38.74 9.83093 38.8389 10.3278 38.8389 10.8295C38.8389 11.3313 38.74 11.8282 38.5479 12.2917C38.3557 12.7552 38.0741 13.1763 37.7191 13.5309L37.6045 13.6455C37.1644 14.0954 36.8692 14.6668 36.7569 15.2861C36.6446 15.9054 36.7204 16.5442 36.9745 17.12V17.2727C37.2165 17.8374 37.6184 18.3189 38.1306 18.6581C38.6428 18.9973 39.243 19.1794 39.8573 19.1818H40.1818C41.1945 19.1818 42.1656 19.5841 42.8817 20.3001C43.5977 21.0162 44 21.9874 44 23C44 24.0126 43.5977 24.9838 42.8817 25.6999C42.1656 26.4159 41.1945 26.8182 40.1818 26.8182H40.01C39.3957 26.8206 38.7955 27.0027 38.2833 27.3419C37.7711 27.6811 37.3693 28.1626 37.1273 28.7273V28.7273Z" stroke="#2C4ADA" stroke-width="3" stroke-linecap="round" stroke-linejoin="round"/>
</svg>
